<svg width="1440" height="318" viewBox="0 0 1440 318" fill="none" xmlns="http://www.w3.org/2000/svg">
<g clip-path="url(#clip0_2_5)">
<path d="M0 79.0465L34.4 71.4056C68.8 63.7646 137.6 48.4827 206.08 38.7579C274.72 29.033 342.88 24.8652 411.52 16.2518C480 7.77724 548.8 -5.28182 617.28 1.94235C685.92 9.16653 754.08 36.3961 822.72 51.678C891.2 66.9599 960 70.2941 1028.48 69.0438C1097.12 67.9324 1165.28 62.3753 1233.92 62.7921C1302.4 63.3478 1371.2 69.7385 1405.6 73.0727L1440 76.268V319.389H1405.6C1371.2 319.389 1302.4 319.389 1233.92 319.389C1165.28 319.389 1097.12 319.389 1028.48 319.389C960 319.389 891.2 319.389 822.72 319.389C754.08 319.389 685.92 319.389 617.28 319.389C548.8 319.389 480 319.389 411.52 319.389C342.88 319.389 274.72 319.389 206.08 319.389C137.6 319.389 68.8 319.389 34.4 319.389H0V79.0465Z" fill="#E7DDFF"/>
<path d="M0 90.1606L34.4 83.2143C68.8 76.268 137.6 62.3753 206.08 63.07C274.72 63.7646 342.88 79.0465 411.52 95.023C480 111 548.8 127.671 617.28 128.643C685.92 129.477 754.08 114.751 822.72 113.361C891.2 111.972 960 123.92 1028.48 131.422C1097.12 138.785 1165.28 141.563 1233.92 132.533C1302.4 123.503 1371.2 102.664 1405.6 92.2445L1440 81.825V319.389H1405.6C1371.2 319.389 1302.4 319.389 1233.92 319.389C1165.28 319.389 1097.12 319.389 1028.48 319.389C960 319.389 891.2 319.389 822.72 319.389C754.08 319.389 685.92 319.389 617.28 319.389C548.8 319.389 480 319.389 411.52 319.389C342.88 319.389 274.72 319.389 206.08 319.389C137.6 319.389 68.8 319.389 34.4 319.389H0V90.1606Z" fill="#DCCEF8"/>
<path d="M0 192.966L34.4 193.244C68.8 193.383 137.6 193.939 206.08 181.574C274.72 169.349 342.88 144.342 411.52 137.118C480 130.033 548.8 140.591 617.28 148.51C685.92 156.429 754.08 161.43 822.72 158.513C891.2 155.456 960 144.342 1028.48 140.174C1097.12 136.006 1165.28 138.785 1233.92 137.674C1302.4 136.423 1371.2 131.422 1405.6 128.782L1440 126.282V319.389H1405.6C1371.2 319.389 1302.4 319.389 1233.92 319.389C1165.28 319.389 1097.12 319.389 1028.48 319.389C960 319.389 891.2 319.389 822.72 319.389C754.08 319.389 685.92 319.389 617.28 319.389C548.8 319.389 480 319.389 411.52 319.389C342.88 319.389 274.72 319.389 206.08 319.389C137.6 319.389 68.8 319.389 34.4 319.389H0V192.966Z" fill="#D1C0F1"/>
<path d="M0 180.463L34.4 180.741C68.8 180.88 137.6 181.435 206.08 181.435C274.72 181.435 342.88 180.88 411.52 181.852C480 182.825 548.8 185.047 617.28 194.355C685.92 203.664 754.08 219.779 822.72 227.976C891.2 236.033 960 236.033 1028.48 231.171C1097.12 226.309 1165.28 216.584 1233.92 204.08C1302.4 191.577 1371.2 176.295 1405.6 168.654L1440 161.013V319.389H1405.6C1371.2 319.389 1302.4 319.389 1233.92 319.389C1165.28 319.389 1097.12 319.389 1028.48 319.389C960 319.389 891.2 319.389 822.72 319.389C754.08 319.389 685.92 319.389 617.28 319.389C548.8 319.389 480 319.389 411.52 319.389C342.88 319.389 274.72 319.389 206.08 319.389C137.6 319.389 68.8 319.389 34.4 319.389H0V180.463Z" fill="#C6B2EA"/>
<path d="M0 237.423L34.4 244.369C68.8 251.315 137.6 265.208 206.08 271.043C274.72 276.739 342.88 274.516 411.52 271.182C480 267.986 548.8 263.819 617.28 260.346C685.92 256.872 754.08 254.094 822.72 252.982C891.2 251.732 960 252.288 1028.48 257.15C1097.12 262.013 1165.28 271.182 1233.92 267.292C1302.4 263.402 1371.2 246.175 1405.6 237.701L1440 229.087V319.389H1405.6C1371.2 319.389 1302.4 319.389 1233.92 319.389C1165.28 319.389 1097.12 319.389 1028.48 319.389C960 319.389 891.2 319.389 822.72 319.389C754.08 319.389 685.92 319.389 617.28 319.389C548.8 319.389 480 319.389 411.52 319.389C342.88 319.389 274.72 319.389 206.08 319.389C137.6 319.389 68.8 319.389 34.4 319.389H0V237.423Z" fill="#BCA4E3"/>
</g>
<defs>
<clipPath id="clip0_2_5">
<rect width="1440" height="318" fill="white"/>
</clipPath>
</defs>
</svg>
