<svg width="1440" height="85" viewBox="0 0 1440 85" fill="none" xmlns="http://www.w3.org/2000/svg">
<g clip-path="url(#clip0_10_22)">
<path d="M-64 66.4063L-36.0924 70.3906C-8.352 74.375 47.4631 82.3438 103.111 82.3438C158.759 82.3438 214.574 74.375 270.222 74.9063C325.87 75.1719 381.685 84.2031 437.333 84.2031C492.981 84.2031 548.796 75.1719 604.444 74.9063C660.092 74.375 715.908 82.3438 771.556 81.5469C827.204 80.4844 883.019 70.9219 938.667 65.875C994.315 61.0938 1050.13 61.0938 1105.78 66.4063C1161.43 71.7188 1217.24 82.3438 1272.89 84.4688C1328.54 86.8594 1384.35 80.4844 1412.09 77.5625L1440 74.375V0H1412.09C1384.35 0 1328.54 0 1272.89 0C1217.24 0 1161.43 0 1105.78 0C1050.13 0 994.315 0 938.667 0C883.019 0 827.204 0 771.556 0C715.908 0 660.092 0 604.444 0C548.796 0 492.981 0 437.333 0C381.685 0 325.87 0 270.222 0C214.574 0 158.759 0 103.111 0C47.4631 0 -8.352 0 -36.0924 0H-64V66.4063Z" fill="#E7DDFF"/>
</g>
<defs>
<clipPath id="clip0_10_22">
<rect width="1440" height="85" fill="white"/>
</clipPath>
</defs>
</svg>
