<svg width="1440" height="83" viewBox="0 0 1440 83" fill="none" xmlns="http://www.w3.org/2000/svg">
<g clip-path="url(#clip0_10_22)">
<path d="M0 64.8438L26.72 68.7344C53.28 72.625 106.72 80.4063 160 80.4063C213.28 80.4063 266.72 72.625 320 73.1438C373.28 73.4031 426.72 82.2219 480 82.2219C533.28 82.2219 586.72 73.4031 640 73.1438C693.28 72.625 746.72 80.4063 800 79.6281C853.28 78.5906 906.72 69.2531 960 64.325C1013.28 59.6563 1066.72 59.6563 1120 64.8438C1173.28 70.0313 1226.72 80.4063 1280 82.4813C1333.28 84.8156 1386.72 78.5906 1413.28 75.7375L1440 72.625V0H1413.28C1386.72 0 1333.28 0 1280 0C1226.72 0 1173.28 0 1120 0C1066.72 0 1013.28 0 960 0C906.72 0 853.28 0 800 0C746.72 0 693.28 0 640 0C586.72 0 533.28 0 480 0C426.72 0 373.28 0 320 0C266.72 0 213.28 0 160 0C106.72 0 53.28 0 26.72 0H0V64.8438Z" fill="#E7DDFF"/>
</g>
<defs>
<clipPath id="clip0_10_22">
<rect width="1440" height="83" fill="white"/>
</clipPath>
</defs>
</svg>
