<?xml version="1.0" encoding="utf-8"?>
<!-- Generator: Adobe Illustrator 23.1.1, SVG Export Plug-In . SVG Version: 6.00 Build 0)  -->
<svg version="1.1" id="Layer_1" xmlns="http://www.w3.org/2000/svg" xmlns:xlink="http://www.w3.org/1999/xlink" x="0px" y="0px"
	 viewBox="0 0 3008 85" style="enable-background:new 0 0 3008 85;" xml:space="preserve">
<style type="text/css">
	.st0{fill:none;}
	.st1{fill:#E7DDFF;}
</style>
<rect y="0" class="st0" width="1440" height="85"/>
<path class="st1" d="M2980.1,0c-27.7,0-83.5,0-139.2,0c-55.7,0-111.5,0-167.1,0s-111.5,0-167.1,0s-111.5,0-167.1,0
	c-55.6,0-111.5,0-167.1,0c-55.6,0-111.5,0-167.1,0s-111.5,0-167.1,0c-55.6,0-111.5,0-167.1,0s-111.5,0-139.2,0H1504h-27.9
	c-27.7,0-83.5,0-139.2,0s-111.5,0-167.1,0s-111.5,0-167.1,0C947,0,891.2,0,835.6,0c-55.6,0-111.5,0-167.1,0C612.8,0,557,0,501.3,0
	S389.9,0,334.2,0c-55.6,0-111.5,0-167.1,0C111.5,0,55.6,0,27.9,0H0v66.4l27.9,4c27.7,4,83.6,12,139.2,12c55.6,0,111.5-8,167.1-7.4
	c55.6,0.3,111.5,9.3,167.1,9.3s111.5-9,167.1-9.3c55.6-0.5,111.5,7.4,167.1,6.6c55.6-1.1,111.5-10.6,167.1-15.7
	c55.6-4.8,111.5-4.8,167.1,0.5s111.5,15.9,167.1,18.1c48,2.1,96.1-2.4,126.2-5.5c6.9-0.7,13.6-2.2,20.2-4.4c3.4-1.2,7-2,10.6-2.4
	l0,0c0.7-0.1,1.3-0.2,2-0.3c8.3-1.8,10.1-2.2,17.9-2l18.2,0.6c27.7,4,83.6,12,139.2,12s111.5-8,167.1-7.4
	c55.6,0.3,111.5,9.3,167.1,9.3s111.5-9,167.1-9.3c55.6-0.5,111.5,7.4,167.1,6.6c55.6-1.1,111.5-10.6,167.1-15.7
	c55.6-4.8,111.5-4.8,167.1,0.5s111.5,15.9,167.1,18.1c55.6,2.4,111.5-4,139.2-6.9l27.9-3.2V0H2980.1z"/>
</svg>
