<?xml version="1.0" encoding="utf-8"?>
<!-- Generator: Adobe Illustrator 23.1.1, SVG Export Plug-In . SVG Version: 6.00 Build 0)  -->
<svg version="1.1" id="Layer_1" xmlns="http://www.w3.org/2000/svg" xmlns:xlink="http://www.w3.org/1999/xlink" x="0px" y="0px"
	 viewBox="0 0 3008 85" style="enable-background:new 0 0 3008 85;" xml:space="preserve">
<style type="text/css">
	.st0{fill:none;}
	.st1{fill:#E7DDFF;}
</style>
<rect x="1336.5" y="0" class="st0" width="1440" height="85"/>
<path class="st1" d="M2980.1,0c-27.7,0-83.5,0-139.2,0c-55.6,0-111.5,0-167.1,0c-55.7,0-111.5,0-167.1,0s-111.5,0-167.1,0
	s-111.5,0-167.1,0c-55.6,0-111.5,0-167.1,0c-55.6,0-111.5,0-167.1,0c-55.6,0-111.5,0-167.1,0s-111.5,0-139.2,0H1504h-27.9
	c-27.7,0-83.6,0-139.2,0c-55.6,0-111.5,0-167.1,0c-55.6,0-111.5,0-167.1,0S891.2,0,835.6,0c-55.6,0-111.5,0-167.1,0
	C612.8,0,557,0,501.3,0c-55.6,0-111.5,0-167.1,0S222.8,0,167.1,0S55.7,0,27.9,0H0v74.4l27.9,3.2c27.7,2.9,83.5,9.3,139.2,6.9
	c55.7-2.1,111.5-12.8,167.1-18.1s111.5-5.3,167.1-0.5c55.6,5,111.5,14.6,167.1,15.7c55.6,0.8,111.5-7.2,167.1-6.6
	c55.6,0.3,111.5,9.3,167.1,9.3s111.5-9,167.1-9.3c55.6-0.5,111.5,7.4,167.1,7.4c55.6,0,111.5-8,139.2-12l9.9-1.4
	c12-1.7,24.1-1.7,36.1,0l9.9,1.4c27.7,4,83.6,12,139.2,12s111.5-8,167.1-7.4c55.6,0.3,111.5,9.3,167.1,9.3c55.6,0,111.5-9,167.1-9.3
	c55.6-0.5,111.5,7.4,167.1,6.6c55.6-1.1,111.5-10.6,167.1-15.7c55.6-4.8,111.5-4.8,167.1,0.5c55.6,5.3,111.5,15.9,167.1,18.1
	c55.7,2.4,111.5-4,139.2-6.9l27.9-3.2V0H2980.1z"/>
</svg>
