<?xml version="1.0" encoding="utf-8"?>
<!-- Generator: Adobe Illustrator 23.1.1, SVG Export Plug-In . SVG Version: 6.00 Build 0)  -->
<svg version="1.1" id="Layer_1" xmlns="http://www.w3.org/2000/svg" xmlns:xlink="http://www.w3.org/1999/xlink" x="0px" y="0px"
	 viewBox="0 0 3008 85" style="enable-background:new 0 0 3008 85;" xml:space="preserve">
<style type="text/css">
	.st0{fill:none;}
	.st1{fill:#E7DDFF;}
</style>
<rect y="0" class="st0" width="1440" height="85"/>
<path class="st1" d="M2980.1,0c-27.7,0-83.5,0-139.2,0s-111.5,0-167.1,0s-111.5,0-167.1,0s-111.5,0-167.1,0s-111.5,0-167.1,0
	S2061,0,2005.4,0s-111.5,0-167.1,0s-111.5,0-167.1,0S1559.7,0,1532,0h-28h-27.9c-27.7,0-83.5,0-139.2,0s-111.5,0-167.1,0
	s-111.5,0-167.1,0C947,0,891.2,0,835.6,0C780,0,724.1,0,668.5,0C612.8,0,557,0,501.3,0S389.9,0,334.2,0c-55.6,0-111.5,0-167.1,0
	S55.6,0,27.9,0H0v66.4l27.9,4c27.7,4,83.6,12,139.2,12s111.5-8,167.1-7.4c55.6,0.3,111.5,9.3,167.1,9.3s111.5-9,167.1-9.3
	c55.6-0.5,111.5,7.4,167.1,6.6C891.1,80.5,947,71,1002.6,65.9c55.6-4.8,111.5-4.8,167.1,0.5c55.6,5.3,111.5,15.9,167.1,18.1
	c48,2.1,139.8-7.7,146.4-9.9c3.4-1.2,7-2,10.6-2.4l0,0c0.7-0.1,1.3-0.2,2-0.3c8.3-1.8,10.1-2.2,17.9-2l18.2,0.6
	c27.7,4,83.6,12,139.2,12s111.5-8,167.1-7.4c55.6,0.3,111.5,9.3,167.1,9.3s111.5-9,167.1-9.3c55.6-0.5,111.5,7.4,167.1,6.6
	c55.6-1.1,111.5-10.6,167.1-15.7c55.6-4.8,111.5-4.8,167.1,0.5c55.6,5.3,111.5,15.9,167.1,18.1c55.6,2.4,111.5-4,139.2-6.9l27.9-3.2
	V0H2980.1z"/>
</svg>
