<svg width="1440" height="87" viewBox="0 0 1440 87" fill="none" xmlns="http://www.w3.org/2000/svg">
<g clip-path="url(#clip0_12_37)">
<mask id="mask0_12_37" style="mask-type:luminance" maskUnits="userSpaceOnUse" x="-19" y="-2" width="1479" height="89">
<path d="M1460 -2H-19V87H1460V-2Z" fill="white"/>
</mask>
<g mask="url(#mask0_12_37)">
<path d="M-84.7333 67.5313L-56.0699 71.7031C-27.5782 75.875 29.7486 84.2188 86.9036 84.2188C144.059 84.2188 201.385 75.875 258.541 76.4313C315.696 76.7094 373.022 86.1656 430.177 86.1656C487.333 86.1656 544.659 76.7094 601.814 76.4313C658.97 75.875 716.297 84.2188 773.452 83.3844C830.608 82.2719 887.934 72.2594 945.089 66.975C1002.24 61.9688 1059.57 61.9688 1116.73 67.5313C1173.89 73.0938 1231.21 84.2188 1288.36 86.4438C1345.52 88.9469 1402.84 82.2719 1431.33 79.2125L1460 75.875V-2H1431.33C1402.84 -2 1345.52 -2 1288.36 -2C1231.21 -2 1173.89 -2 1116.73 -2C1059.57 -2 1002.24 -2 945.089 -2C887.934 -2 830.608 -2 773.452 -2C716.297 -2 658.97 -2 601.814 -2C544.659 -2 487.333 -2 430.177 -2C373.022 -2 315.696 -2 258.541 -2C201.385 -2 144.059 -2 86.9036 -2C29.7486 -2 -27.5782 -2 -56.0699 -2H-84.7333V67.5313Z" fill="#E7DDFF"/>
</g>
</g>
<defs>
<clipPath id="clip0_12_37">
<rect width="1440" height="89" fill="white" transform="translate(0 -2)"/>
</clipPath>
</defs>
</svg>
