<svg width="142" height="159" viewBox="0 0 142 159" fill="none" xmlns="http://www.w3.org/2000/svg">
<g clip-path="url(#clip0_16_7)">
<path d="M-339.469 48.361L-327.104 42.1183C-314.606 36.0083 -289.875 23.5229 -264.745 25.1168C-239.749 26.7106 -214.486 42.1183 -189.489 40.79C-164.36 39.4618 -139.629 21.3977 -114.765 20.4679C-89.9016 19.5381 -65.1709 36.0084 -40.3072 45.0404C-15.4435 54.0725 9.2872 55.932 34.4168 47.4312C59.4135 39.0633 84.676 20.4679 109.673 10.7717C134.802 0.942722 159.533 0.14576 184.397 3.86484C209.26 7.58393 233.991 16.0847 258.855 12.1C283.718 8.11524 308.449 -8.35499 333.579 -6.49545C358.575 -4.76873 383.838 15.1549 408.835 20.0694C433.964 24.8511 458.695 14.7565 483.559 16.7488C508.422 18.7412 533.153 32.8206 558.017 30.1641C582.88 27.5076 607.611 8.11521 632.741 8.91215C657.737 9.84193 683 31.0939 707.997 35.3442C733.126 39.4618 757.857 26.7106 782.721 24.4526C807.584 22.1946 832.315 30.6954 844.813 34.8129L857.179 39.0633V177.201H844.813C832.315 177.201 807.584 177.201 782.721 177.201C757.857 177.201 733.126 177.201 707.997 177.201C683 177.201 657.737 177.201 632.741 177.201C607.611 177.201 582.88 177.201 558.017 177.201C533.153 177.201 508.422 177.201 483.559 177.201C458.695 177.201 433.964 177.201 408.835 177.201C383.838 177.201 358.575 177.201 333.579 177.201C308.449 177.201 283.718 177.201 258.855 177.201C233.991 177.201 209.26 177.201 184.397 177.201C159.533 177.201 134.802 177.201 109.673 177.201C84.676 177.201 59.4135 177.201 34.4168 177.201C9.2872 177.201 -15.4435 177.201 -40.3072 177.201C-65.1709 177.201 -89.9016 177.201 -114.765 177.201C-139.629 177.201 -164.36 177.201 -189.489 177.201C-214.486 177.201 -239.749 177.201 -264.745 177.201C-289.875 177.201 -314.606 177.201 -327.104 177.201H-339.469V48.361Z" fill="black" fill-opacity="0.04"/>
</g>
<defs>
<clipPath id="clip0_16_7">
<rect width="142" height="159" fill="white"/>
</clipPath>
</defs>
</svg>
